<svg xmlns="http://www.w3.org/2000/svg" viewBox="0 0 400 600" width="400" height="600" role="img" aria-label="珍贵芽头特写扁平插画">
  <rect width="400" height="600" fill="#F9EEDF"/>
  <circle cx="320" cy="92" r="50" fill="#F6D879" stroke="#2C1A0E" stroke-width="2.6"/>

  <path d="M66 522 C132 446 176 369 232 292 C253 264 273 245 309 220" fill="none" stroke="#7E5136" stroke-width="16" stroke-linecap="round"/>
  <path d="M66 522 C132 446 176 369 232 292 C253 264 273 245 309 220" fill="none" stroke="#2C1A0E" stroke-width="2.8" stroke-linecap="round"/>

  <g fill="#6C964B" stroke="#2C1A0E" stroke-width="2.6">
    <ellipse cx="224" cy="305" rx="27" ry="12" transform="rotate(-28 224 305)"/>
    <ellipse cx="254" cy="274" rx="24" ry="11" transform="rotate(22 254 274)"/>
    <ellipse cx="285" cy="247" rx="23" ry="11" transform="rotate(-16 285 247)"/>
  </g>
  <g fill="#A8D57F" stroke="#2C1A0E" stroke-width="2.6">
    <ellipse cx="266" cy="254" rx="13" ry="25" transform="rotate(-10 266 254)"/>
    <ellipse cx="284" cy="232" rx="12" ry="23" transform="rotate(8 284 232)"/>
    <ellipse cx="302" cy="216" rx="11" ry="21" transform="rotate(-5 302 216)"/>
  </g>

  <g fill="#D9EEFB" stroke="#2C1A0E" stroke-width="2">
    <circle cx="249" cy="290" r="6"/>
    <circle cx="281" cy="267" r="5"/>
    <circle cx="300" cy="244" r="5"/>
    <circle cx="312" cy="227" r="4"/>
  </g>
</svg>
