<svg xmlns="http://www.w3.org/2000/svg" viewBox="0 0 400 600" width="400" height="600" role="img" aria-label="白瓷茶碗中的金琥珀茶汤扁平插画">
  <rect width="400" height="600" fill="#F9F0E0"/>
  <circle cx="200" cy="500" r="120" fill="#E2CAAA"/>

  <ellipse cx="200" cy="286" rx="92" ry="28" fill="#FCFAF5" stroke="#2C1A0E" stroke-width="3"/>
  <path d="M120 286 L136 324 Q200 348 264 324 L280 286" fill="#F6F1E8" stroke="#2C1A0E" stroke-width="3"/>

  <ellipse cx="200" cy="330" rx="122" ry="38" fill="#FDFCF8" stroke="#2C1A0E" stroke-width="3"/>
  <path d="M96 330 L118 470 Q200 508 282 470 L304 330" fill="#F7F2EA" stroke="#2C1A0E" stroke-width="3"/>
  <ellipse cx="200" cy="330" rx="96" ry="24" fill="#C98642" stroke="#2C1A0E" stroke-width="2.5"/>
  <ellipse cx="200" cy="330" rx="62" ry="15" fill="#DEA75E" opacity="0.85"/>

  <path d="M164 228 Q176 194 188 228" stroke="#D3D3D3" stroke-width="7" fill="none" stroke-linecap="round"/>
  <path d="M200 210 Q212 176 224 210" stroke="#D3D3D3" stroke-width="7" fill="none" stroke-linecap="round"/>
  <path d="M236 228 Q248 194 260 228" stroke="#D3D3D3" stroke-width="7" fill="none" stroke-linecap="round"/>
</svg>
